<svg width="348" height="726" viewBox="0 0 348 726" fill="none" xmlns="http://www.w3.org/2000/svg">
<rect x="3.5" y="467.5" width="464" height="341" rx="93.5" transform="rotate(-90 3.5 467.5)" stroke="black" stroke-width="7"/>
<path d="M73 464C83.2222 468.228 119 485.5 142 529" stroke="black" stroke-width="7"/>
<path d="M275 464C264.778 468.228 229 485.5 206 529" stroke="black" stroke-width="7"/>
<path fill-rule="evenodd" clip-rule="evenodd" d="M196.721 669.528L196.721 565L149.721 565L149.721 668.282L149.721 668.282L149.721 677.348L149.639 677.794C149.634 677.824 149.629 677.854 149.627 677.885L145.98 717.909C145.927 718.495 146.388 719 146.976 719L200.288 719C200.885 719 201.348 718.482 201.282 717.889L196.832 677.909C196.829 677.884 196.825 677.858 196.82 677.833L196.721 677.311L196.721 669.528ZM142.721 676.521L142.721 669.528L142.721 565L142.721 558L149.721 558L196.721 558L203.721 558L203.721 565L203.721 669.528L203.721 676.523L203.721 676.528L203.698 676.528C203.706 676.571 203.714 676.615 203.721 676.658C203.749 676.816 203.771 676.975 203.789 677.135L204.501 683.528L208.239 717.115C208.767 721.854 205.057 726 200.288 726L146.976 726C142.271 726 138.582 721.96 139.009 717.274L142.084 683.528L142.656 677.25C142.672 677.073 142.694 676.897 142.721 676.722C142.732 676.657 142.743 676.592 142.755 676.528L142.721 676.528L142.721 676.521Z" fill="black"/>
<rect x="3.5" y="467.5" width="464" height="341" rx="93.5" transform="rotate(-90 3.5 467.5)" fill="black" stroke="black" stroke-width="7"/>
<path d="M73 464C83.2222 468.228 119 485.5 142 529" stroke="black" stroke-width="7"/>
<path d="M275 464C264.778 468.228 229 485.5 206 529" stroke="black" stroke-width="7"/>
<rect x="136.5" y="558.5" width="32" height="73" rx="3.5" transform="rotate(-90 136.5 558.5)" fill="black" stroke="black" stroke-width="7"/>
<path fill-rule="evenodd" clip-rule="evenodd" d="M196.721 669.528L196.721 565L149.721 565L149.721 668.282L149.721 668.282L149.721 677.348L149.639 677.794C149.634 677.824 149.629 677.854 149.627 677.885L145.98 717.909C145.927 718.495 146.388 719 146.976 719L200.288 719C200.885 719 201.348 718.482 201.282 717.889L196.832 677.909C196.829 677.884 196.825 677.858 196.82 677.833L196.721 677.311L196.721 669.528ZM142.721 676.521L142.721 669.528L142.721 565L142.721 558L149.721 558L196.721 558L203.721 558L203.721 565L203.721 669.528L203.721 676.523L203.721 676.528L203.698 676.528C203.706 676.571 203.714 676.615 203.721 676.658C203.749 676.816 203.771 676.975 203.789 677.135L204.501 683.528L208.239 717.115C208.767 721.854 205.057 726 200.288 726L146.976 726C142.271 726 138.582 721.96 139.009 717.274L142.084 683.528L142.656 677.25C142.672 677.073 142.694 676.897 142.721 676.722C142.732 676.657 142.743 676.592 142.755 676.528L142.721 676.528L142.721 676.521Z" fill="black"/>
<path d="M143.5 529C141.1 512.2 102.833 479 84 464.5L261.5 467.5C241.9 481.5 213 514.333 201 529L200 677.5L205.5 718L202.5 722L146.5 723L143.5 719L147.5 679.5C147.167 636.333 145.9 545.8 143.5 529Z" fill="black"/>
</svg>
